<svg xmlns="http://www.w3.org/2000/svg" viewBox="0 0 675.75 690.31"><defs><style>.cls-1{fill:#be59ff;}.cls-2{fill:#bd58ff;}.cls-3{fill:#bf5bff;}.cls-4{fill:#bf58ff;}.cls-5{fill:#be5aff;}.cls-6{fill:#864af6;}.cls-7{fill:#753fdb;}.cls-8{fill:#bd5bfe;}.cls-9{fill:#c057ff;}.cls-10{fill:#8149f0;}.cls-11{fill:#854bef;}.cls-12,.cls-16{fill:#fff;}.cls-12,.cls-13{stroke:#a1a3ae;stroke-width:2px;}.cls-12,.cls-13,.cls-18{stroke-miterlimit:10;}.cls-13{fill:#0e0055;}.cls-14{fill:#a1a3ae;}.cls-15{fill:#cc5dff;}.cls-17{fill:#c85dff;}.cls-18{fill:none;stroke:#231f20;}.cls-19{fill:#7c46f1;}.cls-20{fill:#be58ff;}.cls-21{fill:#7a47e0;}</style></defs><g id="Layer_2" data-name="Layer 2"><circle class="cls-1" cx="600.51" cy="541.38" r="17.87"/><circle class="cls-2" cx="89.74" cy="445.38" r="16.47"/><circle class="cls-3" cx="266.3" cy="27.42" r="17.87"/><ellipse class="cls-3" cx="124.09" cy="312.55" rx="17.87" ry="15.3"/><circle class="cls-3" cx="330.11" cy="17.95" r="17.87"/><ellipse class="cls-3" cx="795.7" cy="347.57" rx="17.31" ry="17.87" transform="translate(-275.84 165.99) rotate(-24.62)"/><circle class="cls-3" cx="621.11" cy="195.09" r="17.87"/><ellipse class="cls-3" cx="828.88" cy="683.31" rx="17.87" ry="17.05" transform="matrix(0.58, -0.82, 0.82, 0.58, -410.62, 769.76)"/><circle class="cls-1" cx="575.49" cy="571.51" r="17.87"/><circle class="cls-4" cx="29.11" cy="440.27" r="17.87"/><circle class="cls-5" cx="16.47" cy="375.04" r="16.47"/><circle class="cls-1" cx="532.99" cy="615.93" r="16.47"/><circle class="cls-6" cx="148.91" cy="524.85" r="21.26"/></g><g id="Layer_3" data-name="Layer 3"><path class="cls-1" d="M465.6,207.21l9.19,34.22S287,264.78,242.56,494.4h84.91V525H216.91s-15.65,1-11.23-28.94C205.68,496.06,223,272.2,465.6,207.21Z" transform="translate(-203.38 -197.15)"/><path class="cls-1" d="M533.49,197.23S703.6,189,811.62,339.84l-31.83,14.54S697.27,228.76,533.49,233Z" transform="translate(-203.38 -197.15)"/><path class="cls-1" d="M839.79,382s86.43,146.75,3.1,312.54l-27.68-21.41s72.84-131.47-7.07-274.5Z" transform="translate(-203.38 -197.15)"/><path class="cls-7" d="M587.42,799.48l-9.31,14.88s37.3,56.51,36.69,69.28c0,0,28.33-71-2.31-92.09C612.49,791.55,599.46,788.35,587.42,799.48Z" transform="translate(-203.38 -197.15)"/><path class="cls-8" d="M219.85,555.72v32.94S336.91,580,391,600.91s138.9,71,138.9,71S649.43,747,663.21,856.23c0,0,8.17,21.45,28.09,0,0,0,6.13-6.12,11.74-6.12S681.09,754.62,603,689.77c0,0-41.36-12.26-124.09-75.58S219.85,555.72,219.85,555.72Z" transform="translate(-203.38 -197.15)"/><path class="cls-2" d="M293.13,626.06s338.52-.54,321.67,257.58c0,0-24.48-244-321.67-224.64Z" transform="translate(-203.38 -197.15)"/><path class="cls-1" d="M752.3,808.46s-13.42-88.15-113.76-128.65c0,0,84.72,84.58,83.28,140.75Z" transform="translate(-203.38 -197.15)"/><path class="cls-6" d="M352.3,700.74s149.14-4,191.27,81c0,0-32.52-34.14-191.27-38.51Z" transform="translate(-203.38 -197.15)"/><path class="cls-4" d="M249.88,633.32s29.86,127,102.42,148.45,152.21-15.49,198.93,47.78c0,0,15.32,25.75,12.25,57.92,0,0-11.42-76.6-156.59-71.23S215.36,642.53,215.36,642.53Z" transform="translate(-203.38 -197.15)"/><polygon class="cls-1" points="559.64 563.24 588.16 528.47 614.05 553.03 586.85 585.3 559.64 563.24"/><circle class="cls-9" cx="254.85" cy="203.44" r="35.15"/><path class="cls-10" d="M637.38,282.37c-51.15,22.4-43.49,93.51-113.51,102.08L511.72,360c52.2,1.16,71.62-69.47,111.65-88.57Z" transform="translate(-203.38 -197.15)"/><path class="cls-11" d="M624.4,272.06S495.33,201.2,389.62,322.22a89,89,0,0,0-7.73,12.23c-15.38,28.29-43.08,104.21,20.75,212.18,0,0,11.85,19,59.16,25.56V465.45s-72.18,7.18-72.18-68c0,0,8.25-65,70.61-63.43,0,0,31.14-1.79,51.49,27.68,0,0,31.27,1.92,55.15-29S594.24,288.67,624.4,272.06Z" transform="translate(-203.38 -197.15)"/><path class="cls-12" d="M483.47,472.57V543H544.4s-24.85-21.44-20.76-47.32C523.64,495.72,515.47,470.53,483.47,472.57Z" transform="translate(-203.38 -197.15)"/><path class="cls-12" d="M648.23,304.4s-15-.84-53.44,61.71c0,0-24.51,37-70.47,43.15,0,0-2,24.51-19.41,38.12,0,0,38.13,11.46,42.22,60.37,0,0,1.36,20.65,25.87,35.29s51.4,18.73,51.4,18.73,34.39,8.85,26.9-26.9c0,0-7.15-5.78,7.49-12.25s-11.58-9.88-18.39-10.56,8.42-6.46,22.76-8.17V483.81s25.24-1.7,22.18-15.66-21.45-40.17-19.4-60.6S686,354.45,648.23,304.4Z" transform="translate(-203.38 -197.15)"/><path class="cls-13" d="M644.15,393.26s5.81.68-5.61,13.95A21.51,21.51,0,0,0,640.4,427s-18.72,7.83-50.72-9.19C589.68,417.77,622,392.57,644.15,393.26Z" transform="translate(-203.38 -197.15)"/><path class="cls-12" d="M483.47,564.83V587s79.92,67.74,111.79,66c0,0-15.11-37.45-13.75-47.66s3.4-34-14-40.51Z" transform="translate(-203.38 -197.15)"/><path class="cls-14" d="M544.4,564.83s23.83,4.43,25.2,41.53,12,44.38,12,44.38A58,58,0,0,0,595.26,653s-14.55-33-13.75-47.66c0,0,6.81-33-14-40.51Z" transform="translate(-203.38 -197.15)"/><polygon class="cls-15" points="511.57 372.78 479.23 436.17 492.04 453.12 595.66 453.12 608.6 436.17 576.94 372.78 570.81 361.89 517.02 361.89 511.57 372.78"/><polygon class="cls-16" points="525.17 376.04 494.55 439.17 536.43 439.17 551.06 439.17 594.3 439.17 562.3 375.04 525.17 376.04"/><polygon class="cls-17" points="536.43 323.08 536.43 375.04 536.43 439.17 551.06 439.17 551.06 323.08 536.43 323.08"/><path class="cls-18" d="M676.15,572.19" transform="translate(-203.38 -197.15)"/><polygon class="cls-15" points="511.92 464.78 575.49 464.78 584.09 474.91 579.66 480.02 508.85 480.02 503.06 474.23 511.92 464.78"/><path class="cls-19" d="M384.06,832.06s89.2-9.19,126.3,31c0,0-79-26.55-111.66-12.93C398.7,850.11,370.79,851.81,384.06,832.06Z" transform="translate(-203.38 -197.15)"/><path class="cls-20" d="M624.4,272.06s-150-73.7-242.51,62.39c0,0,6.05,25.21,24.71,23.45,20.75-33.38,87-30,105.12,3.78C563.1,366.81,584.32,287.64,624.4,272.06Z" transform="translate(-203.38 -197.15)"/><circle class="cls-15" cx="104" cy="219.77" r="11.83"/><circle class="cls-15" cx="529.06" cy="207.32" r="13.23"/><path class="cls-21" d="M580.83,679.81s90.57,82.13,97.38,145.79c0,0-40.25-55.55-54.35-63.86,0,0,30.5,35.6,39.35,94.49,0,0,8.17,21.45,28.09,0,0,0,5.27-5.1,11.74-6.12,0,0-6.85-78.35-100.08-160.34Z" transform="translate(-203.38 -197.15)"/><ellipse class="cls-15" cx="543.74" cy="323.08" rx="7.32" ry="8.43"/><circle class="cls-15" cx="485.06" cy="445.38" r="10.5"/><circle class="cls-15" cx="602.64" cy="445.38" r="10.5"/><circle class="cls-15" cx="517.19" cy="361.89" r="10.5"/><circle class="cls-15" cx="571.66" cy="361.89" r="10.5"/></g></svg>